<svg xmlns="http://www.w3.org/2000/svg" xmlns:xlink="http://www.w3.org/1999/xlink" width="500" zoomAndPan="magnify" viewBox="0 0 375 374.999991" height="500" preserveAspectRatio="xMidYMid meet" version="1.0"><defs><clipPath id="270998df93"><path d="M 34.722656 63 L 319 63 L 319 337.5 L 34.722656 337.5 Z M 34.722656 63 " clip-rule="nonzero"/></clipPath><clipPath id="1181bd60ed"><path d="M 317.441406 193.28125 C 320.011719 125.277344 278.246094 72.09375 267.0625 78.234375 C 265.234375 79.234375 264.144531 81.898438 269.375 88.871094 C 274.84375 96.179688 281.644531 105.261719 287.910156 117.695312 L 288.167969 118.359375 C 290.21875 123.816406 290.609375 124.796875 289.777344 127 C 286.171875 126.183594 285.101562 125.945312 278.003906 117.859375 C 263.386719 101.210938 245.773438 87.242188 225.832031 77.511719 C 211.804688 70.667969 197.429688 67.152344 182.386719 63.492188 C 177.617188 62.324219 156.863281 64.175781 163.332031 73.054688 C 164.402344 74.515625 166.898438 76.476562 172.773438 77.496094 C 187.300781 80.03125 217.554688 85.300781 249.46875 112.71875 C 251.722656 115.585938 250.875 117.621094 248.75 117.933594 C 247.195312 118.15625 247.195312 118.15625 237.570312 110.386719 C 234.90625 108.242188 232.171875 106.167969 229.363281 104.226562 C 222.597656 99.546875 215.375 95.550781 207.816406 92.332031 C 197.722656 88.019531 187.078125 85.078125 176.25 83.339844 C 170.167969 82.359375 163.71875 81.363281 157.566406 81.507812 C 152.574219 81.640625 146.734375 82.898438 143.574219 87.113281 C 141.320312 90.128906 141.210938 94.476562 144.203125 97.046875 C 146.882812 99.34375 150.304688 99.492188 151.949219 99.546875 C 166.75 100.175781 194.730469 101.433594 229.511719 129.109375 L 231.726562 130.957031 C 235.148438 135.730469 230.5625 136.082031 230.527344 136.082031 C 227.125 136.117188 223.875 131.753906 221.214844 129.664062 C 220.382812 129.015625 219.53125 128.386719 218.664062 127.757812 C 209.957031 121.523438 200.273438 116.566406 190.292969 112.792969 C 181.292969 109.386719 155.589844 98.789062 150.15625 112.347656 C 148.714844 115.9375 149.527344 120.375 152.464844 122.964844 C 153.074219 123.503906 154.773438 124.796875 157.585938 125.257812 C 170.464844 127.425781 192.03125 131.03125 217.703125 153.5625 L 219.9375 155.652344 C 222.453125 160.519531 217.128906 160.90625 216.519531 160.648438 C 205.339844 155.652344 197.539062 145.683594 186.636719 140.261719 C 177.117188 137.246094 172.703125 148.363281 175.363281 154.339844 C 176.324219 156.503906 176.324219 156.503906 183.863281 160.167969 C 214.6875 175.132812 240.027344 216.886719 228.605469 255.214844 C 215.113281 300.484375 168.785156 313.785156 131.804688 300.5 C 81.039062 282.28125 61.132812 227.652344 79.539062 189.101562 C 79.132812 188.285156 78.671875 187.492188 78.285156 186.675781 C 73.867188 177.445312 70.558594 167.679688 68.230469 157.707031 C 65.976562 148.011719 64.625 138.078125 64.367188 128.128906 C 64.257812 123.503906 64.367188 118.859375 64.792969 114.253906 C 65.089844 111.070312 65.585938 107.925781 66.195312 104.800781 C 66.566406 102.894531 66.917969 100.988281 67.121094 99.066406 C 65.585938 100.75 64.035156 102.433594 62.59375 104.207031 C 54.792969 113.789062 48.492188 124.558594 43.890625 136.15625 C 39.289062 147.773438 36.386719 160.222656 35.390625 173.210938 L 35.1875 176.28125 C 34.910156 181.738281 34.816406 184.070312 35.019531 188.621094 C 35.039062 193.1875 35.242188 195.5 35.796875 200.976562 C 36.386719 206.359375 36.628906 208.46875 37.625 213.113281 C 38.382812 217.644531 38.9375 219.84375 40.34375 225.042969 C 41.730469 230.074219 42.320312 232.148438 43.964844 236.4375 C 45.460938 240.933594 46.21875 242.671875 48.328125 247.410156 C 50.339844 251.90625 51.136719 253.644531 53.371094 257.566406 C 55.441406 261.636719 56.402344 263.113281 59.027344 267.242188 C 61.558594 271.199219 62.539062 272.714844 65.253906 276.175781 C 67.84375 279.820312 68.949219 281.097656 72.019531 284.648438 C 75.03125 288.144531 76.121094 289.382812 79.300781 292.453125 C 82.332031 295.636719 83.570312 296.710938 87.023438 299.742188 C 90.460938 302.757812 91.699219 303.832031 95.25 306.402344 C 98.6875 309.121094 100.035156 310.027344 103.859375 312.527344 C 107.703125 315.042969 109.089844 315.949219 112.953125 318.019531 C 116.761719 320.257812 118.238281 320.960938 122.414062 322.941406 C 126.683594 324.957031 128.21875 325.679688 132.375 327.195312 C 136.421875 328.859375 138.140625 329.414062 142.652344 330.804688 C 147.328125 332.226562 149.027344 332.765625 153.445312 333.671875 C 157.769531 334.761719 159.652344 335.058594 164.515625 335.816406 C 169.578125 336.574219 171.574219 336.851562 176.101562 337.09375 C 180.59375 337.519531 182.734375 337.535156 187.910156 337.535156 C 193.398438 337.480469 195.582031 337.464844 200.292969 336.945312 C 204.820312 336.648438 207.261719 336.296875 212.675781 335.410156 C 214.003906 335.167969 215.445312 334.875 216.945312 334.558594 C 216.574219 334.632812 216.1875 334.6875 215.816406 334.761719 C 217.277344 334.464844 218.792969 334.152344 220.324219 333.820312 C 219.179688 334.078125 218.054688 334.316406 216.945312 334.558594 C 217.296875 334.503906 217.628906 334.429688 217.980469 334.375 C 219.105469 334.152344 220.234375 333.910156 221.359375 333.671875 C 222.46875 333.429688 223.597656 333.171875 224.6875 332.894531 C 225.796875 332.617188 226.886719 332.339844 227.976562 332.042969 C 243.335938 327.824219 257.140625 321.035156 269.113281 312.230469 C 281.070312 303.441406 291.164062 292.621094 299.070312 280.335938 C 306.964844 268.054688 312.671875 254.308594 315.851562 239.640625 C 318.976562 224.894531 319.640625 209.28125 317.441406 193.28125 Z M 35.132812 177.261719 C 35.074219 180.71875 35.019531 183.421875 35 185.585938 C 35 185.308594 34.984375 185.011719 34.984375 184.734375 C 34.945312 182.238281 35.019531 179.738281 35.132812 177.261719 Z M 35.132812 177.261719 " clip-rule="nonzero"/></clipPath><linearGradient x1="105.24449" gradientTransform="matrix(1.848066, 0, 0, -1.849911, 34.872547, 339.546014)" y1="-13.445998" x2="52.194542" gradientUnits="userSpaceOnUse" y2="165.35127" id="be810acdae"><stop stop-opacity="1" stop-color="rgb(48.599243%, 5.899048%, 31.799316%)" offset="0"/><stop stop-opacity="1" stop-color="rgb(48.599243%, 5.899048%, 31.799316%)" offset="0.125"/><stop stop-opacity="1" stop-color="rgb(48.599243%, 5.899048%, 31.799316%)" offset="0.1875"/><stop stop-opacity="1" stop-color="rgb(48.599243%, 5.899048%, 31.799316%)" offset="0.203125"/><stop stop-opacity="1" stop-color="rgb(48.622131%, 5.899048%, 31.808472%)" offset="0.210938"/><stop stop-opacity="1" stop-color="rgb(49.000549%, 5.891418%, 31.96106%)" offset="0.214844"/><stop stop-opacity="1" stop-color="rgb(49.356079%, 5.885315%, 32.104492%)" offset="0.21875"/><stop stop-opacity="1" stop-color="rgb(49.710083%, 5.877686%, 32.247925%)" offset="0.222656"/><stop stop-opacity="1" stop-color="rgb(50.065613%, 5.871582%, 32.391357%)" offset="0.226562"/><stop stop-opacity="1" stop-color="rgb(50.419617%, 5.863953%, 32.53479%)" offset="0.230469"/><stop stop-opacity="1" stop-color="rgb(50.775146%, 5.857849%, 32.678223%)" offset="0.234375"/><stop stop-opacity="1" stop-color="rgb(51.12915%, 5.85022%, 32.821655%)" offset="0.238281"/><stop stop-opacity="1" stop-color="rgb(51.48468%, 5.844116%, 32.965088%)" offset="0.242188"/><stop stop-opacity="1" stop-color="rgb(51.838684%, 5.836487%, 33.106995%)" offset="0.246094"/><stop stop-opacity="1" stop-color="rgb(52.194214%, 5.830383%, 33.250427%)" offset="0.25"/><stop stop-opacity="1" stop-color="rgb(52.548218%, 5.822754%, 33.39386%)" offset="0.253906"/><stop stop-opacity="1" stop-color="rgb(52.903748%, 5.81665%, 33.537292%)" offset="0.257812"/><stop stop-opacity="1" stop-color="rgb(53.257751%, 5.809021%, 33.680725%)" offset="0.261719"/><stop stop-opacity="1" stop-color="rgb(53.613281%, 5.802917%, 33.824158%)" offset="0.265625"/><stop stop-opacity="1" stop-color="rgb(53.967285%, 5.795288%, 33.96759%)" offset="0.269531"/><stop stop-opacity="1" stop-color="rgb(54.322815%, 5.789185%, 34.111023%)" offset="0.273438"/><stop stop-opacity="1" stop-color="rgb(54.676819%, 5.781555%, 34.25293%)" offset="0.277344"/><stop stop-opacity="1" stop-color="rgb(55.032349%, 5.775452%, 34.396362%)" offset="0.28125"/><stop stop-opacity="1" stop-color="rgb(55.386353%, 5.767822%, 34.539795%)" offset="0.285156"/><stop stop-opacity="1" stop-color="rgb(55.741882%, 5.761719%, 34.683228%)" offset="0.289062"/><stop stop-opacity="1" stop-color="rgb(56.095886%, 5.754089%, 34.82666%)" offset="0.292969"/><stop stop-opacity="1" stop-color="rgb(56.451416%, 5.747986%, 34.970093%)" offset="0.296875"/><stop stop-opacity="1" stop-color="rgb(56.80542%, 5.740356%, 35.113525%)" offset="0.300781"/><stop stop-opacity="1" stop-color="rgb(57.16095%, 5.734253%, 35.256958%)" offset="0.304687"/><stop stop-opacity="1" stop-color="rgb(57.514954%, 5.726624%, 35.400391%)" offset="0.308594"/><stop stop-opacity="1" stop-color="rgb(57.870483%, 5.72052%, 35.543823%)" offset="0.3125"/><stop stop-opacity="1" stop-color="rgb(58.224487%, 5.712891%, 35.68573%)" offset="0.316406"/><stop stop-opacity="1" stop-color="rgb(58.578491%, 5.706787%, 35.829163%)" offset="0.320312"/><stop stop-opacity="1" stop-color="rgb(58.932495%, 5.699158%, 35.972595%)" offset="0.324219"/><stop stop-opacity="1" stop-color="rgb(59.288025%, 5.693054%, 36.116028%)" offset="0.328125"/><stop stop-opacity="1" stop-color="rgb(59.642029%, 5.685425%, 36.25946%)" offset="0.332031"/><stop stop-opacity="1" stop-color="rgb(59.997559%, 5.679321%, 36.402893%)" offset="0.335937"/><stop stop-opacity="1" stop-color="rgb(60.351562%, 5.673218%, 36.546326%)" offset="0.339844"/><stop stop-opacity="1" stop-color="rgb(60.707092%, 5.667114%, 36.689758%)" offset="0.34375"/><stop stop-opacity="1" stop-color="rgb(61.061096%, 5.659485%, 36.831665%)" offset="0.347656"/><stop stop-opacity="1" stop-color="rgb(61.416626%, 5.653381%, 36.975098%)" offset="0.351562"/><stop stop-opacity="1" stop-color="rgb(61.77063%, 5.645752%, 37.11853%)" offset="0.355469"/><stop stop-opacity="1" stop-color="rgb(62.12616%, 5.639648%, 37.261963%)" offset="0.359375"/><stop stop-opacity="1" stop-color="rgb(62.480164%, 5.632019%, 37.405396%)" offset="0.363281"/><stop stop-opacity="1" stop-color="rgb(62.835693%, 5.625916%, 37.548828%)" offset="0.367187"/><stop stop-opacity="1" stop-color="rgb(63.189697%, 5.618286%, 37.692261%)" offset="0.371094"/><stop stop-opacity="1" stop-color="rgb(63.545227%, 5.612183%, 37.835693%)" offset="0.375"/><stop stop-opacity="1" stop-color="rgb(63.899231%, 5.604553%, 37.9776%)" offset="0.378906"/><stop stop-opacity="1" stop-color="rgb(64.254761%, 5.59845%, 38.121033%)" offset="0.382812"/><stop stop-opacity="1" stop-color="rgb(64.608765%, 5.59082%, 38.264465%)" offset="0.386719"/><stop stop-opacity="1" stop-color="rgb(64.964294%, 5.584717%, 38.407898%)" offset="0.390625"/><stop stop-opacity="1" stop-color="rgb(65.318298%, 5.577087%, 38.551331%)" offset="0.394531"/><stop stop-opacity="1" stop-color="rgb(65.673828%, 5.570984%, 38.694763%)" offset="0.398438"/><stop stop-opacity="1" stop-color="rgb(66.027832%, 5.563354%, 38.838196%)" offset="0.402344"/><stop stop-opacity="1" stop-color="rgb(66.383362%, 5.557251%, 38.981628%)" offset="0.40625"/><stop stop-opacity="1" stop-color="rgb(66.737366%, 5.549622%, 39.125061%)" offset="0.410156"/><stop stop-opacity="1" stop-color="rgb(67.092896%, 5.543518%, 39.268494%)" offset="0.414062"/><stop stop-opacity="1" stop-color="rgb(67.446899%, 5.535889%, 39.4104%)" offset="0.417969"/><stop stop-opacity="1" stop-color="rgb(67.802429%, 5.529785%, 39.553833%)" offset="0.421875"/><stop stop-opacity="1" stop-color="rgb(68.156433%, 5.522156%, 39.697266%)" offset="0.425781"/><stop stop-opacity="1" stop-color="rgb(68.511963%, 5.516052%, 39.840698%)" offset="0.429688"/><stop stop-opacity="1" stop-color="rgb(68.865967%, 5.508423%, 39.984131%)" offset="0.433594"/><stop stop-opacity="1" stop-color="rgb(69.221497%, 5.502319%, 40.127563%)" offset="0.4375"/><stop stop-opacity="1" stop-color="rgb(69.5755%, 5.49469%, 40.270996%)" offset="0.441406"/><stop stop-opacity="1" stop-color="rgb(69.93103%, 5.488586%, 40.414429%)" offset="0.445312"/><stop stop-opacity="1" stop-color="rgb(70.285034%, 5.480957%, 40.556335%)" offset="0.449219"/><stop stop-opacity="1" stop-color="rgb(70.640564%, 5.474854%, 40.699768%)" offset="0.453125"/><stop stop-opacity="1" stop-color="rgb(70.994568%, 5.467224%, 40.843201%)" offset="0.457031"/><stop stop-opacity="1" stop-color="rgb(71.350098%, 5.461121%, 40.986633%)" offset="0.460938"/><stop stop-opacity="1" stop-color="rgb(71.704102%, 5.453491%, 41.130066%)" offset="0.464844"/><stop stop-opacity="1" stop-color="rgb(72.059631%, 5.447388%, 41.273499%)" offset="0.46875"/><stop stop-opacity="1" stop-color="rgb(72.413635%, 5.441284%, 41.416931%)" offset="0.472656"/><stop stop-opacity="1" stop-color="rgb(72.767639%, 5.435181%, 41.560364%)" offset="0.476562"/><stop stop-opacity="1" stop-color="rgb(73.121643%, 5.427551%, 41.702271%)" offset="0.480469"/><stop stop-opacity="1" stop-color="rgb(73.477173%, 5.421448%, 41.845703%)" offset="0.484375"/><stop stop-opacity="1" stop-color="rgb(73.831177%, 5.413818%, 41.989136%)" offset="0.488281"/><stop stop-opacity="1" stop-color="rgb(74.186707%, 5.407715%, 42.132568%)" offset="0.492188"/><stop stop-opacity="1" stop-color="rgb(74.54071%, 5.400085%, 42.276001%)" offset="0.496094"/><stop stop-opacity="1" stop-color="rgb(74.89624%, 5.393982%, 42.419434%)" offset="0.5"/><stop stop-opacity="1" stop-color="rgb(75.250244%, 5.386353%, 42.562866%)" offset="0.503906"/><stop stop-opacity="1" stop-color="rgb(75.605774%, 5.380249%, 42.706299%)" offset="0.507812"/><stop stop-opacity="1" stop-color="rgb(75.959778%, 5.37262%, 42.848206%)" offset="0.511719"/><stop stop-opacity="1" stop-color="rgb(76.315308%, 5.366516%, 42.991638%)" offset="0.515625"/><stop stop-opacity="1" stop-color="rgb(76.669312%, 5.358887%, 43.135071%)" offset="0.519531"/><stop stop-opacity="1" stop-color="rgb(77.024841%, 5.352783%, 43.278503%)" offset="0.523437"/><stop stop-opacity="1" stop-color="rgb(77.378845%, 5.345154%, 43.421936%)" offset="0.527344"/><stop stop-opacity="1" stop-color="rgb(77.734375%, 5.33905%, 43.565369%)" offset="0.53125"/><stop stop-opacity="1" stop-color="rgb(78.088379%, 5.331421%, 43.708801%)" offset="0.535156"/><stop stop-opacity="1" stop-color="rgb(78.443909%, 5.325317%, 43.852234%)" offset="0.539062"/><stop stop-opacity="1" stop-color="rgb(78.797913%, 5.317688%, 43.995667%)" offset="0.542969"/><stop stop-opacity="1" stop-color="rgb(79.153442%, 5.311584%, 44.139099%)" offset="0.546875"/><stop stop-opacity="1" stop-color="rgb(79.507446%, 5.303955%, 44.281006%)" offset="0.550781"/><stop stop-opacity="1" stop-color="rgb(79.862976%, 5.297852%, 44.424438%)" offset="0.554688"/><stop stop-opacity="1" stop-color="rgb(80.21698%, 5.290222%, 44.567871%)" offset="0.558594"/><stop stop-opacity="1" stop-color="rgb(80.57251%, 5.284119%, 44.711304%)" offset="0.5625"/><stop stop-opacity="1" stop-color="rgb(80.926514%, 5.276489%, 44.854736%)" offset="0.566406"/><stop stop-opacity="1" stop-color="rgb(81.282043%, 5.270386%, 44.998169%)" offset="0.570312"/><stop stop-opacity="1" stop-color="rgb(81.636047%, 5.262756%, 45.141602%)" offset="0.574219"/><stop stop-opacity="1" stop-color="rgb(81.991577%, 5.256653%, 45.285034%)" offset="0.578125"/><stop stop-opacity="1" stop-color="rgb(82.345581%, 5.249023%, 45.426941%)" offset="0.582031"/><stop stop-opacity="1" stop-color="rgb(82.701111%, 5.24292%, 45.570374%)" offset="0.585937"/><stop stop-opacity="1" stop-color="rgb(83.055115%, 5.235291%, 45.713806%)" offset="0.589844"/><stop stop-opacity="1" stop-color="rgb(83.410645%, 5.229187%, 45.857239%)" offset="0.59375"/><stop stop-opacity="1" stop-color="rgb(83.764648%, 5.221558%, 46.000671%)" offset="0.597656"/><stop stop-opacity="1" stop-color="rgb(84.120178%, 5.215454%, 46.144104%)" offset="0.601562"/><stop stop-opacity="1" stop-color="rgb(84.474182%, 5.209351%, 46.287537%)" offset="0.605469"/><stop stop-opacity="1" stop-color="rgb(84.829712%, 5.203247%, 46.430969%)" offset="0.609375"/><stop stop-opacity="1" stop-color="rgb(85.183716%, 5.195618%, 46.572876%)" offset="0.613281"/><stop stop-opacity="1" stop-color="rgb(85.539246%, 5.189514%, 46.716309%)" offset="0.617187"/><stop stop-opacity="1" stop-color="rgb(85.89325%, 5.181885%, 46.859741%)" offset="0.621094"/><stop stop-opacity="1" stop-color="rgb(86.247253%, 5.175781%, 47.003174%)" offset="0.625"/><stop stop-opacity="1" stop-color="rgb(86.601257%, 5.168152%, 47.146606%)" offset="0.628906"/><stop stop-opacity="1" stop-color="rgb(86.956787%, 5.162048%, 47.290039%)" offset="0.632812"/><stop stop-opacity="1" stop-color="rgb(87.310791%, 5.154419%, 47.433472%)" offset="0.636719"/><stop stop-opacity="1" stop-color="rgb(87.666321%, 5.148315%, 47.576904%)" offset="0.640625"/><stop stop-opacity="1" stop-color="rgb(88.020325%, 5.140686%, 47.720337%)" offset="0.644531"/><stop stop-opacity="1" stop-color="rgb(88.375854%, 5.134583%, 47.86377%)" offset="0.648438"/><stop stop-opacity="1" stop-color="rgb(88.729858%, 5.126953%, 48.005676%)" offset="0.652344"/><stop stop-opacity="1" stop-color="rgb(89.085388%, 5.12085%, 48.149109%)" offset="0.65625"/><stop stop-opacity="1" stop-color="rgb(89.439392%, 5.11322%, 48.292542%)" offset="0.660156"/><stop stop-opacity="1" stop-color="rgb(89.794922%, 5.107117%, 48.435974%)" offset="0.664062"/><stop stop-opacity="1" stop-color="rgb(89.996338%, 5.102539%, 48.516846%)" offset="0.667969"/><stop stop-opacity="1" stop-color="rgb(90.19928%, 5.099487%, 48.599243%)" offset="0.671875"/><stop stop-opacity="1" stop-color="rgb(90.19928%, 5.099487%, 48.599243%)" offset="0.6875"/><stop stop-opacity="1" stop-color="rgb(90.19928%, 5.099487%, 48.599243%)" offset="0.75"/><stop stop-opacity="1" stop-color="rgb(90.19928%, 5.099487%, 48.599243%)" offset="0.764634"/><stop stop-opacity="1" stop-color="rgb(90.19928%, 5.099487%, 48.599243%)" offset="1"/></linearGradient><clipPath id="643ee5c7d5"><path d="M 50 37.5 L 339.972656 37.5 L 339.972656 323 L 50 323 Z M 50 37.5 " clip-rule="nonzero"/></clipPath><clipPath id="9caf58022b"><path d="M 338.878906 168.511719 C 337.917969 159.984375 337.84375 159.6875 334.296875 144.515625 C 332.097656 136.542969 331.875 136.007812 326.292969 122.246094 C 323.132812 115.234375 323.003906 114.992188 315.59375 102.488281 C 311.65625 96.34375 311.472656 96.125 302.621094 85.136719 C 297.980469 79.769531 297.980469 79.769531 287.667969 70.09375 C 282.367188 65.46875 282.367188 65.46875 270.890625 57.347656 C 265.328125 53.707031 264.976562 53.464844 254.664062 48.136719 C 301.789062 81.953125 331.914062 146.421875 302.988281 199.070312 C 275.582031 248.945312 207.316406 249.796875 167.15625 218.71875 C 111.53125 175.652344 117.703125 114.640625 139.398438 86.964844 C 144.5 80.453125 145.554688 79.105469 145 76.792969 C 144.128906 73.183594 136.40625 69.929688 129.085938 77.21875 C 125.058594 82.398438 118.460938 90.871094 114.023438 102.671875 C 110.550781 111.941406 110.550781 111.941406 107.6875 112.605469 C 107.296875 112.273438 106.761719 111.828125 106.355469 111.496094 C 106.355469 111.015625 106.375 110.386719 106.375 109.90625 L 107.316406 106.871094 C 119.347656 73.703125 139.101562 61.417969 150.894531 54.074219 C 154.535156 51.816406 154.847656 51.1875 156.070312 48.839844 C 155.902344 48.359375 155.699219 47.691406 155.550781 47.210938 C 153.628906 46.398438 149.15625 44.472656 138.679688 49.726562 C 109.664062 66.285156 97.539062 91.109375 95.398438 95.9375 C 90.738281 106.410156 90.738281 106.410156 88.558594 107.5 C 88.171875 107.148438 87.636719 106.707031 87.246094 106.355469 C 87.339844 105.835938 87.46875 105.152344 87.5625 104.652344 L 88.613281 101.988281 C 106.613281 60.070312 139.214844 46.582031 151.484375 41.496094 C 155.625 39.773438 155.773438 39.496094 156.753906 37.648438 C 155.199219 37.445312 151.097656 36.890625 139.03125 41.328125 C 98.242188 59.144531 82.109375 85.839844 76.101562 100.175781 C 71.425781 111.328125 71.425781 111.328125 69.429688 113.253906 C 68.96875 113.085938 68.339844 112.847656 67.878906 112.679688 C 67.972656 112.179688 68.082031 111.496094 68.15625 110.996094 C 75.382812 91.738281 85.160156 79.53125 89.019531 75.164062 C 99.925781 62.898438 115.058594 55.59375 126.941406 44.863281 C 126.316406 45.140625 125.464844 45.492188 124.816406 45.769531 C 119.71875 48.210938 112.621094 51.78125 107.6875 54.539062 C 52.058594 85.523438 41.175781 156.207031 57.34375 213.148438 C 63.683594 235.457031 73.886719 254.050781 89.945312 270.957031 C 101.882812 283.539062 115.742188 294.195312 130.804688 302.5 C 145.867188 310.804688 162.167969 316.742188 179.003906 319.871094 C 195.839844 323.015625 213.210938 323.347656 230.453125 320.445312 C 241.394531 318.59375 251.6875 315.542969 261.261719 311.453125 C 270.832031 307.363281 279.648438 302.203125 287.652344 296.171875 C 295.652344 290.140625 302.804688 283.222656 309.03125 275.582031 C 315.261719 267.941406 320.566406 259.5625 324.835938 250.609375 L 328.585938 242.101562 C 332.058594 233.367188 332.300781 232.480469 336.125 217.882812 C 338.066406 208.949219 338.140625 208.0625 339.527344 193.132812 C 339.988281 184.289062 339.953125 183.699219 338.878906 168.511719 Z M 338.878906 168.511719 " clip-rule="nonzero"/></clipPath><linearGradient x1="122.855608" gradientTransform="matrix(1.848066, 0, 0, -1.849911, 34.872547, 339.546014)" y1="180.100646" x2="47.589728" gradientUnits="userSpaceOnUse" y2="-8.843026" id="833b7bf49c"><stop stop-opacity="1" stop-color="rgb(100%, 68.998718%, 5.899048%)" offset="0"/><stop stop-opacity="1" stop-color="rgb(100%, 68.998718%, 5.899048%)" offset="0.0625"/><stop stop-opacity="1" stop-color="rgb(100%, 68.998718%, 5.899048%)" offset="0.09375"/><stop stop-opacity="1" stop-color="rgb(100%, 68.97583%, 5.818176%)" offset="0.109375"/><stop stop-opacity="1" stop-color="rgb(100%, 68.907166%, 5.578613%)" offset="0.125"/><stop stop-opacity="1" stop-color="rgb(100%, 68.815613%, 5.258179%)" offset="0.140625"/><stop stop-opacity="1" stop-color="rgb(100%, 68.72406%, 4.937744%)" offset="0.15625"/><stop stop-opacity="1" stop-color="rgb(100%, 68.632507%, 4.61731%)" offset="0.171875"/><stop stop-opacity="1" stop-color="rgb(100%, 68.540955%, 4.296875%)" offset="0.1875"/><stop stop-opacity="1" stop-color="rgb(100%, 68.449402%, 3.97644%)" offset="0.203125"/><stop stop-opacity="1" stop-color="rgb(100%, 68.357849%, 3.656006%)" offset="0.21875"/><stop stop-opacity="1" stop-color="rgb(100%, 68.266296%, 3.335571%)" offset="0.234375"/><stop stop-opacity="1" stop-color="rgb(100%, 68.185425%, 3.07312%)" offset="0.242187"/><stop stop-opacity="1" stop-color="rgb(100%, 68.106079%, 2.848816%)" offset="0.25"/><stop stop-opacity="1" stop-color="rgb(100%, 68.017578%, 2.606201%)" offset="0.257812"/><stop stop-opacity="1" stop-color="rgb(100%, 67.927551%, 2.363586%)" offset="0.265625"/><stop stop-opacity="1" stop-color="rgb(100%, 67.83905%, 2.120972%)" offset="0.273437"/><stop stop-opacity="1" stop-color="rgb(100%, 67.749023%, 1.878357%)" offset="0.28125"/><stop stop-opacity="1" stop-color="rgb(100%, 67.660522%, 1.635742%)" offset="0.289062"/><stop stop-opacity="1" stop-color="rgb(100%, 67.570496%, 1.393127%)" offset="0.29419"/><stop stop-opacity="1" stop-color="rgb(100%, 67.526245%, 1.272583%)" offset="0.296875"/><stop stop-opacity="1" stop-color="rgb(99.972534%, 67.379761%, 1.298523%)" offset="0.3125"/><stop stop-opacity="1" stop-color="rgb(99.914551%, 67.077637%, 1.399231%)" offset="0.328125"/><stop stop-opacity="1" stop-color="rgb(99.85199%, 66.764832%, 1.547241%)" offset="0.34375"/><stop stop-opacity="1" stop-color="rgb(99.789429%, 66.452026%, 1.695251%)" offset="0.359375"/><stop stop-opacity="1" stop-color="rgb(99.726868%, 66.139221%, 1.844788%)" offset="0.375"/><stop stop-opacity="1" stop-color="rgb(99.664307%, 65.826416%, 1.992798%)" offset="0.390625"/><stop stop-opacity="1" stop-color="rgb(99.601746%, 65.515137%, 2.140808%)" offset="0.40625"/><stop stop-opacity="1" stop-color="rgb(99.539185%, 65.202332%, 2.288818%)" offset="0.421875"/><stop stop-opacity="1" stop-color="rgb(99.476624%, 64.889526%, 2.438354%)" offset="0.4375"/><stop stop-opacity="1" stop-color="rgb(99.414062%, 64.576721%, 2.586365%)" offset="0.453125"/><stop stop-opacity="1" stop-color="rgb(99.351501%, 64.265442%, 2.734375%)" offset="0.46875"/><stop stop-opacity="1" stop-color="rgb(99.28894%, 63.952637%, 2.883911%)" offset="0.484375"/><stop stop-opacity="1" stop-color="rgb(99.226379%, 63.635254%, 3.034973%)" offset="0.5"/><stop stop-opacity="1" stop-color="rgb(99.168396%, 63.346863%, 3.172302%)" offset="0.507812"/><stop stop-opacity="1" stop-color="rgb(99.116516%, 63.092041%, 3.295898%)" offset="0.515625"/><stop stop-opacity="1" stop-color="rgb(99.064636%, 62.838745%, 3.419495%)" offset="0.523438"/><stop stop-opacity="1" stop-color="rgb(99.012756%, 62.583923%, 3.543091%)" offset="0.53125"/><stop stop-opacity="1" stop-color="rgb(98.960876%, 62.329102%, 3.668213%)" offset="0.539062"/><stop stop-opacity="1" stop-color="rgb(98.908997%, 62.075806%, 3.791809%)" offset="0.546875"/><stop stop-opacity="1" stop-color="rgb(98.857117%, 61.820984%, 3.915405%)" offset="0.554688"/><stop stop-opacity="1" stop-color="rgb(98.805237%, 61.566162%, 4.039001%)" offset="0.5625"/><stop stop-opacity="1" stop-color="rgb(98.754883%, 61.312866%, 4.162598%)" offset="0.570312"/><stop stop-opacity="1" stop-color="rgb(98.703003%, 61.058044%, 4.286194%)" offset="0.578125"/><stop stop-opacity="1" stop-color="rgb(98.651123%, 60.803223%, 4.40979%)" offset="0.585938"/><stop stop-opacity="1" stop-color="rgb(98.599243%, 60.548401%, 4.534912%)" offset="0.59375"/><stop stop-opacity="1" stop-color="rgb(98.547363%, 60.295105%, 4.658508%)" offset="0.601562"/><stop stop-opacity="1" stop-color="rgb(98.495483%, 60.040283%, 4.782104%)" offset="0.609375"/><stop stop-opacity="1" stop-color="rgb(98.443604%, 59.785461%, 4.905701%)" offset="0.617188"/><stop stop-opacity="1" stop-color="rgb(98.391724%, 59.532166%, 5.029297%)" offset="0.625"/><stop stop-opacity="1" stop-color="rgb(98.339844%, 59.277344%, 5.152893%)" offset="0.632812"/><stop stop-opacity="1" stop-color="rgb(98.287964%, 59.022522%, 5.276489%)" offset="0.640625"/><stop stop-opacity="1" stop-color="rgb(98.236084%, 58.769226%, 5.400085%)" offset="0.648438"/><stop stop-opacity="1" stop-color="rgb(98.184204%, 58.514404%, 5.525208%)" offset="0.65625"/><stop stop-opacity="1" stop-color="rgb(98.132324%, 58.259583%, 5.648804%)" offset="0.664062"/><stop stop-opacity="1" stop-color="rgb(98.080444%, 58.006287%, 5.7724%)" offset="0.671875"/><stop stop-opacity="1" stop-color="rgb(98.03009%, 57.751465%, 5.895996%)" offset="0.679688"/><stop stop-opacity="1" stop-color="rgb(97.97821%, 57.496643%, 6.019592%)" offset="0.6875"/><stop stop-opacity="1" stop-color="rgb(97.926331%, 57.243347%, 6.143188%)" offset="0.695312"/><stop stop-opacity="1" stop-color="rgb(97.874451%, 56.988525%, 6.266785%)" offset="0.703125"/><stop stop-opacity="1" stop-color="rgb(97.822571%, 56.733704%, 6.391907%)" offset="0.70581"/><stop stop-opacity="1" stop-color="rgb(97.796631%, 56.607056%, 6.454468%)" offset="0.710938"/><stop stop-opacity="1" stop-color="rgb(97.770691%, 56.478882%, 6.515503%)" offset="0.71875"/><stop stop-opacity="1" stop-color="rgb(97.718811%, 56.225586%, 6.639099%)" offset="0.726562"/><stop stop-opacity="1" stop-color="rgb(97.666931%, 55.970764%, 6.762695%)" offset="0.734375"/><stop stop-opacity="1" stop-color="rgb(97.615051%, 55.715942%, 6.886292%)" offset="0.742188"/><stop stop-opacity="1" stop-color="rgb(97.563171%, 55.462646%, 7.009888%)" offset="0.75"/><stop stop-opacity="1" stop-color="rgb(97.511292%, 55.207825%, 7.133484%)" offset="0.757812"/><stop stop-opacity="1" stop-color="rgb(97.459412%, 54.953003%, 7.25708%)" offset="0.765625"/><stop stop-opacity="1" stop-color="rgb(97.407532%, 54.699707%, 7.382202%)" offset="0.773438"/><stop stop-opacity="1" stop-color="rgb(97.355652%, 54.444885%, 7.505798%)" offset="0.78125"/><stop stop-opacity="1" stop-color="rgb(97.305298%, 54.190063%, 7.629395%)" offset="0.789062"/><stop stop-opacity="1" stop-color="rgb(97.253418%, 53.936768%, 7.752991%)" offset="0.796875"/><stop stop-opacity="1" stop-color="rgb(97.201538%, 53.681946%, 7.876587%)" offset="0.804688"/><stop stop-opacity="1" stop-color="rgb(97.149658%, 53.427124%, 8.000183%)" offset="0.8125"/><stop stop-opacity="1" stop-color="rgb(97.097778%, 53.172302%, 8.123779%)" offset="0.820312"/><stop stop-opacity="1" stop-color="rgb(97.045898%, 52.919006%, 8.248901%)" offset="0.828125"/><stop stop-opacity="1" stop-color="rgb(96.994019%, 52.664185%, 8.372498%)" offset="0.835938"/><stop stop-opacity="1" stop-color="rgb(96.942139%, 52.409363%, 8.496094%)" offset="0.84375"/><stop stop-opacity="1" stop-color="rgb(96.887207%, 52.137756%, 8.628845%)" offset="0.851562"/><stop stop-opacity="1" stop-color="rgb(96.83075%, 51.841736%, 8.773804%)" offset="0.859375"/><stop stop-opacity="1" stop-color="rgb(96.774292%, 51.535034%, 8.924866%)" offset="0.867188"/><stop stop-opacity="1" stop-color="rgb(96.716309%, 51.229858%, 9.074402%)" offset="0.875"/><stop stop-opacity="1" stop-color="rgb(96.658325%, 50.924683%, 9.225464%)" offset="0.882812"/><stop stop-opacity="1" stop-color="rgb(96.600342%, 50.617981%, 9.375%)" offset="0.890625"/><stop stop-opacity="1" stop-color="rgb(96.542358%, 50.312805%, 9.526062%)" offset="0.898438"/><stop stop-opacity="1" stop-color="rgb(96.484375%, 50.006104%, 9.675598%)" offset="0.90625"/><stop stop-opacity="1" stop-color="rgb(96.426392%, 49.700928%, 9.825134%)" offset="0.914062"/><stop stop-opacity="1" stop-color="rgb(96.368408%, 49.395752%, 9.976196%)" offset="0.921875"/><stop stop-opacity="1" stop-color="rgb(96.310425%, 49.08905%, 10.125732%)" offset="0.929688"/><stop stop-opacity="1" stop-color="rgb(96.252441%, 48.783875%, 10.276794%)" offset="0.9375"/><stop stop-opacity="1" stop-color="rgb(96.194458%, 48.477173%, 10.426331%)" offset="0.945312"/><stop stop-opacity="1" stop-color="rgb(96.136475%, 48.171997%, 10.575867%)" offset="0.953125"/><stop stop-opacity="1" stop-color="rgb(96.078491%, 47.866821%, 10.726929%)" offset="0.960938"/><stop stop-opacity="1" stop-color="rgb(96.020508%, 47.56012%, 10.876465%)" offset="0.96875"/><stop stop-opacity="1" stop-color="rgb(95.962524%, 47.254944%, 11.027527%)" offset="0.976562"/><stop stop-opacity="1" stop-color="rgb(95.904541%, 46.949768%, 11.177063%)" offset="0.984375"/><stop stop-opacity="1" stop-color="rgb(95.846558%, 46.643066%, 11.328125%)" offset="0.992188"/><stop stop-opacity="1" stop-color="rgb(95.788574%, 46.337891%, 11.477661%)" offset="1"/></linearGradient></defs><g clip-path="url(#270998df93)"><g clip-path="url(#1181bd60ed)"><path fill="url(#be810acdae)" d="M 34.816406 337.5 L 34.816406 62.324219 L 320.011719 62.324219 L 320.011719 337.5 Z M 34.816406 337.5 " fill-rule="nonzero"/></g></g><g clip-path="url(#643ee5c7d5)"><g clip-path="url(#9caf58022b)"><path fill="url(#833b7bf49c)" d="M 41.175781 323.347656 L 41.175781 37.5 L 339.972656 37.5 L 339.972656 323.347656 Z M 41.175781 323.347656 " fill-rule="nonzero"/></g></g></svg>